<?xml version="1.0" encoding="UTF-8" standalone="no"?>
<svg
   xmlns:dc="http://purl.org/dc/elements/1.1/"
   xmlns:cc="http://creativecommons.org/ns#"
   xmlns:rdf="http://www.w3.org/1999/02/22-rdf-syntax-ns#"
   xmlns:svg="http://www.w3.org/2000/svg"
   xmlns="http://www.w3.org/2000/svg"
   xmlns:xlink="http://www.w3.org/1999/xlink"
   xmlns:sodipodi="http://sodipodi.sourceforge.net/DTD/sodipodi-0.dtd"
   xmlns:inkscape="http://www.inkscape.org/namespaces/inkscape"
   version="1.1"
   width="180"
   height="180"
   id="svg2985"
   xml:space="preserve"
   sodipodi:docname="sqlite.svg"
   inkscape:version="1.0.1 (3bc2e813f5, 2020-09-07)"><sodipodi:namedview
     pagecolor="#ffffff"
     bordercolor="#666666"
     borderopacity="1"
     objecttolerance="10"
     gridtolerance="10"
     guidetolerance="10"
     inkscape:pageopacity="0"
     inkscape:pageshadow="2"
     inkscape:window-width="1920"
     inkscape:window-height="1001"
     id="namedview16"
     showgrid="false"
     inkscape:zoom="2.451763"
     inkscape:cx="194.62908"
     inkscape:cy="103.69403"
     inkscape:window-x="-9"
     inkscape:window-y="-9"
     inkscape:window-maximized="1"
     inkscape:current-layer="svg2985"
     inkscape:document-rotation="0" /><title
     id="title2998">SQLite</title><metadata
     id="metadata2991"><rdf:RDF><cc:Work
         rdf:about=""><dc:format>image/svg+xml</dc:format><dc:type
           rdf:resource="http://purl.org/dc/dcmitype/StillImage" /><dc:title>SQLite</dc:title></cc:Work></rdf:RDF></metadata><defs
     id="defs2989"><linearGradient
       x1="0"
       y1="0"
       x2="1"
       y2="0"
       id="linearGradient3027"
       gradientUnits="userSpaceOnUse"
       gradientTransform="matrix(-4.02e-6,-91.8907,-91.8907,4.02e-6,85.8809,161.434)"
       spreadMethod="pad"><stop
         id="stop3029"
         style="stop-color:#97d9f6;stop-opacity:1"
         offset="0" /><stop
         id="stop3031"
         style="stop-color:#0f80cc;stop-opacity:1"
         offset="0.92024499" /><stop
         id="stop3033"
         style="stop-color:#0f80cc;stop-opacity:1"
         offset="1" /></linearGradient><linearGradient
       x1="-15.614694"
       y1="-9.1082983"
       x2="-6.7410073"
       y2="-9.1082983"
       id="linearGradient5421"
       xlink:href="#linearGradient3027"
       gradientUnits="userSpaceOnUse"
       gradientTransform="matrix(-4.02e-7,-9.18907,-9.18907,4.02e-7,8.58809,16.1434)"
       spreadMethod="pad" /><linearGradient
       x1="-15.614694"
       y1="-9.1082983"
       x2="-6.7410073"
       y2="-9.1082983"
       id="linearGradient2995"
       xlink:href="#linearGradient3027"
       gradientUnits="userSpaceOnUse"
       gradientTransform="matrix(-5.025e-7,11.486337,-11.486337,-5.025e-7,-30.839638,202.18698)"
       spreadMethod="pad" /></defs><path
     d="M 135.9907,9.1887826 C 125.89709,2.7048723 113.67627,5.309372 101.61464,13.020184 c -1.790266,1.145554 -3.576823,2.416463 -5.354136,3.774056 -20.633403,15.767025 -39.785728,44.972626 -45.736,67.276904 2.317903,3.385983 4.128534,7.70681 5.320812,11.007444 0.305473,0.846829 0.581326,1.641649 0.801637,2.317779 0.523935,1.600168 0.805343,2.637843 0.805343,2.637843 0,0 -0.185137,-0.504228 -0.944195,-2.08974 -0.144406,-0.304054 -0.305474,-0.63612 -0.496164,-1.026862 -0.08146,-0.161364 -0.194393,-0.357402 -0.318435,-0.566776 -1.345937,-2.253765 -5.069026,-7.010678 -6.707478,-9.081741 -1.401479,2.977905 -2.640039,5.763772 -3.676802,8.284256 4.730226,6.234273 7.612794,16.918193 7.612794,16.918193 0,0 -0.249934,-0.6924 -1.438507,-3.10901 -1.055275,-2.13734 -6.311288,-8.77088 -7.556327,-10.321716 -2.129806,5.663506 -2.976063,9.487156 -2.212932,10.418136 1.481644,1.80395 2.892751,4.91656 4.131867,8.35881 2.799257,7.75469 4.745037,17.19504 4.745037,17.19504 0,0 0.06295,0.62558 0.168473,1.5883 -0.388786,6.51219 -0.155513,13.26399 0.544298,19.36677 0.927534,8.07862 2.673367,15.01849 4.898702,18.73266 l 1.51071,-0.59331 c -3.267652,-7.31753 -4.595079,-16.90738 -4.01375,-27.96683 0.879398,-16.90471 6.279815,-37.29102 16.258648,-58.539235 C 86.816726,55.525669 110.20682,29.790067 131.6141,17.49971 112.10261,30.19281 85.694801,71.279357 77.789491,86.494275 68.938136,103.53221 62.665726,119.52076 58.885247,134.83929 65.407593,120.47827 86.49644,114.30522 86.49644,114.30522 c 0,0 10.343549,-9.18882 22.43109,-22.316558 -7.24068,1.189562 -19.130117,3.225954 -23.112392,4.431517 -5.874367,1.775008 -7.45728,2.380452 -7.45728,2.380452 0,0 19.02828,-8.34693 35.353572,-12.126321 22.45145,-25.471552 46.91163,-61.657159 22.27927,-77.4855274"
     id="feather"
     style="fill:#003b57;fill-opacity:1;fill-rule:nonzero;stroke:none;stroke-width:1.25704" /></svg>
